<svg width="663" height="663" viewBox="0 0 663 663" fill="none" xmlns="http://www.w3.org/2000/svg">
<rect width="663" height="663" rx="331.5" fill="white"/>
<path d="M258.301 344.615C272.792 344.846 289.014 339.885 301.017 347.578C298.764 367.124 288.532 400.315 304.853 424.44C318.401 419.283 337.522 408.008 351.404 412.763L352.276 467.49H362.737L363.086 409.974C397.956 409.302 430.426 410 449.215 418.514C442.182 395.215 427.628 355.907 458.804 317.948C427.719 320.909 398.577 324.577 364.132 326.314L361.65 273.585C365.96 267.253 377.035 277.323 441.539 302.671C403.873 255.11 392.175 201.962 428.423 144.44C405.072 148.148 378.024 158.394 358.568 155.211L358.522 76L355.506 82.2389C338.341 86.7181 320.425 92.2209 303.622 94.9265C305.765 97.3538 311.657 106.105 316.185 107.926L303.622 122.905C319.275 121.569 347.799 117.276 353.625 121.521L354.983 154.872C331.092 161.528 307.83 169.736 285.151 179.386C268.156 206.931 235.827 242.689 262.137 299.473C287.474 278.044 314.118 260.21 352.276 274.026C352.155 292.39 356.352 309.603 350.009 329.626C317.115 329.683 287.534 336.78 258.301 344.615ZM248.907 433.123C252.418 440.554 258.098 453.605 263.177 455.43C265.744 451.034 269.178 444.483 274.673 440.58C264.969 437.038 255.539 433.755 248.907 433.123ZM132.711 387.77C143.324 385.471 154.683 382.12 162.321 384.005C162.321 384.005 159.113 422.121 172.058 431.026C181.202 437.316 206.288 422.436 208.611 425.05V452.806H214.716L214.714 425.05C292.447 431.262 295.551 453.22 322.37 460.867C283.676 421.058 291.276 376.89 295.139 349.133C269.838 351.312 244.641 353.718 218.549 354.157C212.065 343.423 210.727 321.217 216.298 319.74C226.351 317.074 266.746 323.595 271.16 329.23C242.589 294.41 243.972 267.755 251.85 206.401C236.698 210.227 220.344 214.769 209.451 213.075C210.639 200.77 212.376 184.425 209.394 175.299C178.653 164.598 177.944 194.116 151.98 205.067C165.288 205.653 196.125 208.059 204.463 193.046L204.586 215.846C135.325 224.828 100.28 272.026 134.948 352.719C154.359 323.541 188.922 316.65 208.437 319.952L208.873 355.508C186.91 364.107 198.763 359.183 183.202 359.114C161.784 359.018 134.514 363.626 132.711 387.77ZM502.903 421.785L508.667 418.766L505.461 386.168C537.147 378.916 560.101 391.877 576.473 397.938C553.677 351.733 565.976 296.16 597 256.763L505.646 315.673L505.307 192.646C497.022 195.581 481.054 214.695 481.76 215.168C482.855 215.902 490.672 215.163 500.838 209.191C501.019 245.778 501.86 282.233 500.997 319.029C485.589 333.059 463.818 347.045 446.1 362.382C446.033 362.439 439.995 368.921 447.332 395.904C452.151 394.523 470.053 385.539 503.057 385.182C503.01 396.93 502.634 408.778 502.903 421.785ZM85.2471 455.104C54.2208 437.003 112.629 408.639 174.607 439.374C157.799 425.593 151.476 409.816 155.447 388.176C139.938 391.035 123.208 394.779 107.568 399.095C90.1838 388.742 82.0864 377.78 69.3496 367.427L69.4667 375.952L93.5569 399.151C52.4272 405.635 42.1361 411.866 43.0552 413.703C49.6281 426.834 66.7091 452.944 85.2471 455.104ZM193.984 546.507C182.064 515.943 170.762 485.849 129.383 432.877C144.865 433.189 159.1 439.488 171.299 455.554C199.018 452.945 222.563 458.084 241.078 472.561L415.649 472.315C427.622 459.346 430.125 441.117 436.854 425.236L509.838 424.496L516.249 402.559L580.603 405.517L523.153 547L193.984 546.507Z" fill="#191970"/>
</svg>
